<?xml version="1.0" standalone="no"?>
<!DOCTYPE svg PUBLIC "-//W3C//DTD SVG 20010904//EN"
 "http://www.w3.org/TR/2001/REC-SVG-20010904/DTD/svg10.dtd">
<svg version="1.0" xmlns="http://www.w3.org/2000/svg"
 width="4000.000000pt" height="4000.000000pt" viewBox="0 0 4000.000000 4000.000000"
 preserveAspectRatio="xMidYMid meet">

<g transform="translate(0.000000,4000.000000) scale(0.100000,-0.100000)"
fill="#000000" stroke="none">
<path d="M18362 33225 c-8538 -1614 -15526 -2936 -15529 -2938 -2 -3 523 -676
1168 -1496 l1173 -1491 13095 0 13096 0 1264 4418 c695 2429 1266 4423 1269
4430 2 6 0 12 -4 11 -5 0 -6995 -1321 -15532 -2934z"/>
<path d="M3700 20110 l0 -5100 5705 0 5705 0 0 5100 0 5100 -1951 -2 -1951 -3
-649 -2320 c-753 -2697 -668 -2397 -679 -2390 -5 3 -822 1065 -1817 2360
l-1808 2355 -1277 0 -1278 0 0 -5100z"/>
<path d="M17110 20110 l0 -5101 2478 4 c2649 4 2541 2 2927 52 712 92 1266
290 1686 601 57 42 167 140 244 218 546 549 830 1273 801 2041 -26 705 -250
1239 -705 1678 -343 330 -727 538 -1234 668 -103 26 -126 34 -116 43 2 2 88
42 190 89 198 90 238 114 444 268 244 182 368 307 500 504 248 369 370 864
352 1415 -12 360 -74 644 -209 960 -162 380 -460 776 -738 982 -426 315 -1037
533 -1743 623 -397 50 -290 48 -2659 52 l-2218 4 0 -5101z"/>
<path d="M26730 20110 l0 -5100 1894 0 c1879 0 2093 3 2474 35 1549 132 2670
638 3515 1589 662 745 1049 1685 1161 2821 97 971 -8 1949 -289 2714 -261 709
-657 1287 -1220 1780 -836 733 -1840 1125 -3155 1231 -340 27 -591 30 -2442
30 l-1938 0 0 -5100z"/>
<path d="M16547 12838 c6 -7 1760 -2238 3898 -4958 2138 -2720 3897 -4955
3909 -4968 l22 -23 743 2593 c408 1426 1049 3667 1425 4981 l683 2387 -5344 0
c-4275 0 -5343 -3 -5336 -12z"/>
</g>
</svg>
